<?xml version="1.0" encoding="UTF-8" standalone="no"?>
<svg xmlns="http://www.w3.org/2000/svg" width="820.00" height="620.00" viewBox="-20.00 -20.00 820.00 620.00">
  <!-- Fundo -->
  <rect x="-20.00" y="-20.00" width="820.00" height="620.00" fill="#f8f9fa" stroke="none"/>

  <!-- Definições de efeitos -->
  <defs>
    <filter id="sombra" x="-50%" y="-50%" width="200%" height="200%">
      <feGaussianBlur in="SourceAlpha" stdDeviation="3"/>
      <feOffset dx="2" dy="2" result="offsetblur"/>
      <feComponentTransfer>
        <feFuncA type="linear" slope="0.3"/>
      </feComponentTransfer>
      <feMerge>
        <feMergeNode/>
        <feMergeNode in="SourceGraphic"/>
      </feMerge>
    </filter>
  </defs>

  <!-- Formas geométricas -->
  <circle cx="150.00" cy="150.00" r="35.00" stroke="darkgreen" fill="lightgreen" stroke-width="2" filter="url(#sombra)"/>
  <circle cx="200.00" cy="180.00" r="30.00" stroke="green" fill="palegreen" stroke-width="2" filter="url(#sombra)"/>
  <circle cx="250.00" cy="160.00" r="38.00" stroke="forestgreen" fill="lightgreen" stroke-width="2" filter="url(#sombra)"/>
  <circle cx="180.00" cy="220.00" r="32.00" stroke="darkgreen" fill="lime" stroke-width="2" filter="url(#sombra)"/>
  <circle cx="220.00" cy="240.00" r="35.00" stroke="green" fill="lightgreen" stroke-width="2" filter="url(#sombra)"/>
  <circle cx="150.00" cy="280.00" r="30.00" stroke="forestgreen" fill="palegreen" stroke-width="2" filter="url(#sombra)"/>
  <rect x="50.00" y="50.00" width="80.00" height="120.00" stroke="gray" fill="lightgray" stroke-width="2" filter="url(#sombra)"/>
  <rect x="350.00" y="60.00" width="90.00" height="140.00" stroke="darkblue" fill="lightblue" stroke-width="2" filter="url(#sombra)"/>
  <rect x="500.00" y="80.00" width="70.00" height="110.00" stroke="purple" fill="lavender" stroke-width="2" filter="url(#sombra)"/>
  <rect x="650.00" y="50.00" width="85.00" height="150.00" stroke="brown" fill="wheat" stroke-width="2" filter="url(#sombra)"/>
  <rect x="80.00" y="320.00" width="75.00" height="100.00" stroke="red" fill="lightcoral" stroke-width="2" filter="url(#sombra)"/>
  <rect x="380.00" y="340.00" width="95.00" height="130.00" stroke="navy" fill="lightskyblue" stroke-width="2" filter="url(#sombra)"/>
  <rect x="540.00" y="360.00" width="80.00" height="90.00" stroke="maroon" fill="mistyrose" stroke-width="2" filter="url(#sombra)"/>
  <rect x="680.00" y="330.00" width="70.00" height="120.00" stroke="darkslategray" fill="lightsteelblue" stroke-width="2" filter="url(#sombra)"/>
  <rect x="200.00" y="400.00" width="50.00" height="60.00" stroke="orange" fill="lightyellow" stroke-width="2" filter="url(#sombra)"/>
  <rect x="270.00" y="420.00" width="55.00" height="50.00" stroke="crimson" fill="pink" stroke-width="2" filter="url(#sombra)"/>
  <rect x="350.00" y="410.00" width="45.00" height="55.00" stroke="teal" fill="lightcyan" stroke-width="2" filter="url(#sombra)"/>
  <rect x="420.00" y="400.00" width="50.00" height="65.00" stroke="olive" fill="khaki" stroke-width="2" filter="url(#sombra)"/>
  <line x1="30.00" y1="200.00" x2="750.00" y2="200.00" stroke="black" stroke-width="2" />
  <line x1="30.00" y1="380.00" x2="750.00" y2="380.00" stroke="black" stroke-width="2" />
  <line x1="300.00" y1="30.00" x2="300.00" y2="550.00" stroke="darkgray" stroke-width="2" />
  <line x1="500.00" y1="30.00" x2="500.00" y2="550.00" stroke="darkgray" stroke-width="2" />
  <line x1="100.00" y1="100.00" x2="400.00" y2="100.00" stroke="gray" stroke-width="2" />
  <line x1="150.00" y1="300.00" x2="650.00" y2="300.00" stroke="gray" stroke-width="2" />
  <line x1="50.00" y1="450.00" x2="450.00" y2="450.00" stroke="darkgray" stroke-width="2" />
  <line x1="140.00" y1="140.00" x2="260.00" y2="140.00" stroke="brown" stroke-width="2" />
  <line x1="260.00" y1="140.00" x2="260.00" y2="290.00" stroke="brown" stroke-width="2" />
  <line x1="140.00" y1="290.00" x2="260.00" y2="290.00" stroke="brown" stroke-width="2" />
  <line x1="140.00" y1="140.00" x2="140.00" y2="290.00" stroke="brown" stroke-width="2" />
  <line x1="340.00" y1="50.00" x2="440.00" y2="50.00" stroke="saddlebrown" stroke-width="2" />
  <line x1="340.00" y1="210.00" x2="440.00" y2="210.00" stroke="saddlebrown" stroke-width="2" />
  <line x1="340.00" y1="50.00" x2="340.00" y2="210.00" stroke="saddlebrown" stroke-width="2" />
  <line x1="440.00" y1="50.00" x2="440.00" y2="210.00" stroke="saddlebrown" stroke-width="2" />
  <line x1="70.00" y1="310.00" x2="160.00" y2="310.00" stroke="sienna" stroke-width="2" />
  <line x1="70.00" y1="310.00" x2="70.00" y2="430.00" stroke="sienna" stroke-width="2" />
  <line x1="70.00" y1="430.00" x2="160.00" y2="430.00" stroke="sienna" stroke-width="2" />
  <line x1="160.00" y1="310.00" x2="160.00" y2="430.00" stroke="sienna" stroke-width="2" />
  <line x1="280.00" y1="250.00" x2="320.00" y2="250.00" stroke="steelblue" stroke-width="2" />
  <line x1="480.00" y1="280.00" x2="520.00" y2="280.00" stroke="steelblue" stroke-width="2" />
  <line x1="600.00" y1="150.00" x2="640.00" y2="150.00" stroke="steelblue" stroke-width="2" />
  <text x="90.00" y="30.00" font-family="sans-serif" font-size="12" font-weight="normal" text-anchor="middle" stroke="white" fill="navy" filter="url(#sombra)">EDIFICIO CENTRAL</text>
  <text x="390.00" y="40.00" font-family="sans-serif" font-size="12" font-weight="normal" text-anchor="middle" stroke="white" fill="darkblue" filter="url(#sombra)">TORRE PRINCIPAL</text>
  <text x="540.00" y="60.00" font-family="sans-serif" font-size="12" font-weight="normal" text-anchor="middle" stroke="white" fill="purple" filter="url(#sombra)">PREDIO COMERCIAL</text>
  <text x="720.00" y="30.00" font-family="sans-serif" font-size="12" font-weight="normal" text-anchor="middle" stroke="white" fill="brown" filter="url(#sombra)">RESIDENCIAL NORTE</text>
  <text x="110.00" y="300.00" font-family="sans-serif" font-size="12" font-weight="normal" text-anchor="middle" stroke="white" fill="red" filter="url(#sombra)">EDIFICIO SUL</text>
  <text x="420.00" y="320.00" font-family="sans-serif" font-size="12" font-weight="normal" text-anchor="middle" stroke="white" fill="navy" filter="url(#sombra)">CENTRO EMPRESARIAL</text>
  <text x="580.00" y="340.00" font-family="sans-serif" font-size="12" font-weight="normal" text-anchor="middle" stroke="white" fill="maroon" filter="url(#sombra)">EDIFICIO LESTE</text>
  <text x="230.00" y="380.00" font-family="sans-serif" font-size="12" font-weight="normal" text-anchor="start" stroke="black" fill="orange" filter="url(#sombra)">CASA 1</text>
  <text x="305.00" y="400.00" font-family="sans-serif" font-size="12" font-weight="normal" text-anchor="start" stroke="black" fill="crimson" filter="url(#sombra)">CASA 2</text>
  <text x="385.00" y="390.00" font-family="sans-serif" font-size="12" font-weight="normal" text-anchor="start" stroke="black" fill="teal" filter="url(#sombra)">CASA 3</text>
  <text x="200.00" y="130.00" font-family="sans-serif" font-size="12" font-weight="normal" text-anchor="middle" stroke="darkgreen" fill="yellow" filter="url(#sombra)">PARQUE</text>
  <text x="400.00" y="200.00" font-family="sans-serif" font-size="12" font-weight="normal" text-anchor="middle" stroke="black" fill="white" filter="url(#sombra)">RUA CENTRAL</text>
  <text x="550.00" y="380.00" font-family="sans-serif" font-size="12" font-weight="normal" text-anchor="middle" stroke="black" fill="white" filter="url(#sombra)">RUA SUL</text>
  <circle cx="100.00" cy="500.00" r="15.00" stroke="red" fill="pink" stroke-width="2" filter="url(#sombra)"/>
  <circle cx="200.00" cy="520.00" r="15.00" stroke="blue" fill="lightblue" stroke-width="2" filter="url(#sombra)"/>
  <circle cx="300.00" cy="510.00" r="15.00" stroke="yellow" fill="lightyellow" stroke-width="2" filter="url(#sombra)"/>
  <circle cx="400.00" cy="500.00" r="15.00" stroke="green" fill="lightgreen" stroke-width="2" filter="url(#sombra)"/>
  <circle cx="500.00" cy="515.00" r="15.00" stroke="purple" fill="lavender" stroke-width="2" filter="url(#sombra)"/>
  <circle cx="600.00" cy="505.00" r="15.00" stroke="orange" fill="lightsalmon" stroke-width="2" filter="url(#sombra)"/>
  <circle cx="600.00" cy="200.00" r="45.00" stroke="darkblue" fill="lightblue" stroke-width="2" filter="url(#sombra)"/>
  <circle cx="630.00" cy="230.00" r="25.00" stroke="blue" fill="lightcyan" stroke-width="2" filter="url(#sombra)"/>
  <circle cx="700.00" cy="180.00" r="30.00" stroke="navy" fill="azure" stroke-width="2" filter="url(#sombra)"/>
</svg>
