<?xml version="1.0" encoding="UTF-8" standalone="no"?>
<svg xmlns="http://www.w3.org/2000/svg" width="220.00" height="250.00" viewBox="90.00 90.00 220.00 250.00">
  <defs>
    <radialGradient id="bgGradient" cx="50%" cy="50%" r="50%">
      <stop offset="0%" style="stop-color:#ffffff;stop-opacity:1" />
      <stop offset="100%" style="stop-color:#e0e0e0;stop-opacity:1" />
    </radialGradient>
    <radialGradient id="visGradient" cx="206.40" cy="224.17">
      <stop offset="0%" style="stop-color:#ffeb3b;stop-opacity:0.6" />
      <stop offset="70%" style="stop-color:#ffc107;stop-opacity:0.4" />
      <stop offset="100%" style="stop-color:#ff9800;stop-opacity:0.2" />
    </radialGradient>
    <filter id="brilho">
      <feGaussianBlur in="SourceGraphic" stdDeviation="2" />
    </filter>
  </defs>

  <rect x="90.00" y="90.00" width="220.00" height="250.00" fill="url(#bgGradient)"/>

  <!-- Região de visibilidade - Brilho -->
  <polygon points="140.00,140.01 140.00,140.01 140.00,140.00 140.00,140.00 140.01,140.00 140.01,140.00 255.99,140.00 255.99,140.00 256.00,140.00 256.00,140.00 256.01,140.00 256.01,140.00 259.99,140.00 259.99,140.00 260.00,140.00 260.00,140.00 260.00,140.01 260.00,140.01 260.00,162.49 260.00,162.49 260.00,162.50 260.00,162.50 260.00,162.51 260.00,162.51 260.00,202.49 260.00,202.49 260.00,202.50 260.00,202.50 260.00,202.51 260.00,202.51 260.00,204.28 260.00,204.28 260.00,204.29 260.00,204.29 260.00,204.29 260.00,204.29 260.00,289.98 260.00,289.98 260.00,290.00 260.00,290.00 259.99,290.00 259.99,290.00 184.36,290.00 184.36,290.00 184.35,290.00 184.35,290.00 184.34,290.00 184.34,290.00 167.28,290.00 167.28,290.00 167.27,290.00 167.27,290.00 167.26,290.00 167.26,290.00 149.14,290.00 149.14,290.00 149.13,290.00 149.13,290.00 149.12,290.00 149.12,290.00 140.01,290.00 140.01,290.00 140.00,290.00 140.00,290.00 140.00,289.98 140.00,289.98 140.00,250.78 140.00,250.78 140.00,250.77 140.00,250.77 140.00,250.76 140.00,250.76 " fill="url(#visGradient)" stroke="none" filter="url(#brilho)" opacity="0.5"/>
  <!-- Região de visibilidade - Principal -->
  <polygon points="140.00,140.01 140.00,140.01 140.00,140.00 140.00,140.00 140.01,140.00 140.01,140.00 255.99,140.00 255.99,140.00 256.00,140.00 256.00,140.00 256.01,140.00 256.01,140.00 259.99,140.00 259.99,140.00 260.00,140.00 260.00,140.00 260.00,140.01 260.00,140.01 260.00,162.49 260.00,162.49 260.00,162.50 260.00,162.50 260.00,162.51 260.00,162.51 260.00,202.49 260.00,202.49 260.00,202.50 260.00,202.50 260.00,202.51 260.00,202.51 260.00,204.28 260.00,204.28 260.00,204.29 260.00,204.29 260.00,204.29 260.00,204.29 260.00,289.98 260.00,289.98 260.00,290.00 260.00,290.00 259.99,290.00 259.99,290.00 184.36,290.00 184.36,290.00 184.35,290.00 184.35,290.00 184.34,290.00 184.34,290.00 167.28,290.00 167.28,290.00 167.27,290.00 167.27,290.00 167.26,290.00 167.26,290.00 149.14,290.00 149.14,290.00 149.13,290.00 149.13,290.00 149.12,290.00 149.12,290.00 140.01,290.00 140.01,290.00 140.00,290.00 140.00,290.00 140.00,289.98 140.00,289.98 140.00,250.78 140.00,250.78 140.00,250.77 140.00,250.77 140.00,250.76 140.00,250.76 " fill="url(#visGradient)" stroke="#ff6f00" stroke-width="3" stroke-linejoin="round" stroke-linecap="round"/>

  <!-- Ponto de origem (bomba) -->
  <circle cx="206.40" cy="224.17" r="8" fill="#ff3d00" stroke="#b71c1c" stroke-width="2"/>
  <circle cx="206.40" cy="224.17" r="12" fill="none" stroke="#ff6f00" stroke-width="2" opacity="0.6"/>
  <circle cx="206.40" cy="224.17" r="16" fill="none" stroke="#ffa726" stroke-width="1" opacity="0.4"/>

  <!-- Raios de visibilidade -->
  <g opacity="0.15">
    <line x1="206.40" y1="224.17" x2="140.00" y2="140.01" stroke="#ff9800" stroke-width="1" stroke-dasharray="5,5"/>
    <line x1="206.40" y1="224.17" x2="140.00" y2="140.00" stroke="#ff9800" stroke-width="1" stroke-dasharray="5,5"/>
    <line x1="206.40" y1="224.17" x2="255.99" y2="140.00" stroke="#ff9800" stroke-width="1" stroke-dasharray="5,5"/>
    <line x1="206.40" y1="224.17" x2="256.00" y2="140.00" stroke="#ff9800" stroke-width="1" stroke-dasharray="5,5"/>
    <line x1="206.40" y1="224.17" x2="259.99" y2="140.00" stroke="#ff9800" stroke-width="1" stroke-dasharray="5,5"/>
    <line x1="206.40" y1="224.17" x2="260.00" y2="140.00" stroke="#ff9800" stroke-width="1" stroke-dasharray="5,5"/>
    <line x1="206.40" y1="224.17" x2="260.00" y2="162.49" stroke="#ff9800" stroke-width="1" stroke-dasharray="5,5"/>
    <line x1="206.40" y1="224.17" x2="260.00" y2="162.50" stroke="#ff9800" stroke-width="1" stroke-dasharray="5,5"/>
    <line x1="206.40" y1="224.17" x2="260.00" y2="202.49" stroke="#ff9800" stroke-width="1" stroke-dasharray="5,5"/>
    <line x1="206.40" y1="224.17" x2="260.00" y2="202.50" stroke="#ff9800" stroke-width="1" stroke-dasharray="5,5"/>
    <line x1="206.40" y1="224.17" x2="260.00" y2="204.28" stroke="#ff9800" stroke-width="1" stroke-dasharray="5,5"/>
    <line x1="206.40" y1="224.17" x2="260.00" y2="204.29" stroke="#ff9800" stroke-width="1" stroke-dasharray="5,5"/>
    <line x1="206.40" y1="224.17" x2="260.00" y2="289.98" stroke="#ff9800" stroke-width="1" stroke-dasharray="5,5"/>
    <line x1="206.40" y1="224.17" x2="260.00" y2="290.00" stroke="#ff9800" stroke-width="1" stroke-dasharray="5,5"/>
    <line x1="206.40" y1="224.17" x2="184.36" y2="290.00" stroke="#ff9800" stroke-width="1" stroke-dasharray="5,5"/>
    <line x1="206.40" y1="224.17" x2="184.35" y2="290.00" stroke="#ff9800" stroke-width="1" stroke-dasharray="5,5"/>
    <line x1="206.40" y1="224.17" x2="167.28" y2="290.00" stroke="#ff9800" stroke-width="1" stroke-dasharray="5,5"/>
    <line x1="206.40" y1="224.17" x2="167.27" y2="290.00" stroke="#ff9800" stroke-width="1" stroke-dasharray="5,5"/>
    <line x1="206.40" y1="224.17" x2="149.14" y2="290.00" stroke="#ff9800" stroke-width="1" stroke-dasharray="5,5"/>
    <line x1="206.40" y1="224.17" x2="149.13" y2="290.00" stroke="#ff9800" stroke-width="1" stroke-dasharray="5,5"/>
    <line x1="206.40" y1="224.17" x2="140.01" y2="290.00" stroke="#ff9800" stroke-width="1" stroke-dasharray="5,5"/>
    <line x1="206.40" y1="224.17" x2="140.00" y2="290.00" stroke="#ff9800" stroke-width="1" stroke-dasharray="5,5"/>
    <line x1="206.40" y1="224.17" x2="140.00" y2="250.78" stroke="#ff9800" stroke-width="1" stroke-dasharray="5,5"/>
    <line x1="206.40" y1="224.17" x2="140.00" y2="250.77" stroke="#ff9800" stroke-width="1" stroke-dasharray="5,5"/>
  </g>
</svg>
