<?xml version="1.0" encoding="UTF-8" standalone="no"?>
<svg xmlns="http://www.w3.org/2000/svg" width="15622.42" height="10755.65" viewBox="-9724.59 -9572.18 15622.42 10755.65">
  <defs>
    <radialGradient id="bgGradient" cx="50%" cy="50%" r="50%">
      <stop offset="0%" style="stop-color:#ffffff;stop-opacity:1" />
      <stop offset="100%" style="stop-color:#e0e0e0;stop-opacity:1" />
    </radialGradient>
    <radialGradient id="visGradient" cx="-587.97" cy="-737.66">
      <stop offset="0%" style="stop-color:#ffeb3b;stop-opacity:0.6" />
      <stop offset="70%" style="stop-color:#ffc107;stop-opacity:0.4" />
      <stop offset="100%" style="stop-color:#ff9800;stop-opacity:0.2" />
    </radialGradient>
    <filter id="brilho">
      <feGaussianBlur in="SourceGraphic" stdDeviation="2" />
    </filter>
  </defs>

  <rect x="-9724.59" y="-9572.18" width="15622.42" height="10755.65" fill="url(#bgGradient)"/>

  <!-- Região de visibilidade - Brilho -->
  <polygon points="160.00,353.06 160.00,353.06 160.00,353.04 160.00,353.04 160.00,353.03 160.00,353.03 160.00,310.02 160.00,310.02 160.00,310.00 160.00,310.00 -7562.57,-5759.00 -7562.57,-5759.00 -7461.77,-5885.15 140.00,290.00 140.03,290.00 259.99,290.00 259.99,290.00 260.00,290.00 260.00,290.00 260.00,289.95 260.00,289.95 260.00,140.20 260.00,140.00 -1113.22,-9479.64 1373.82,-9522.18 1373.82,-9522.18 340.00,50.00 340.00,50.00 340.00,50.35 340.00,50.35 340.00,209.89 340.00,209.89 340.00,210.00 340.00,210.00 340.02,210.00 340.02,210.00 379.44,210.00 379.44,210.00 379.46,210.00 379.46,210.00 379.48,210.00 379.48,210.00 439.97,210.00 439.97,210.00 440.00,210.00 440.00,210.00 5847.83,-7899.95 5847.83,-7899.95 -9674.52,1133.47 -9674.52,1133.47 -9674.59,1132.47 -9674.59,1132.47 160.00,429.99 160.00,429.99 160.00,426.10 160.00,426.10 160.00,426.09 160.00,426.09 160.00,426.07 160.00,426.07 " fill="url(#visGradient)" stroke="none" filter="url(#brilho)" opacity="0.5"/>
  <!-- Região de visibilidade - Principal -->
  <polygon points="160.00,353.06 160.00,353.06 160.00,353.04 160.00,353.04 160.00,353.03 160.00,353.03 160.00,310.02 160.00,310.02 160.00,310.00 160.00,310.00 -7562.57,-5759.00 -7562.57,-5759.00 -7461.77,-5885.15 140.00,290.00 140.03,290.00 259.99,290.00 259.99,290.00 260.00,290.00 260.00,290.00 260.00,289.95 260.00,289.95 260.00,140.20 260.00,140.00 -1113.22,-9479.64 1373.82,-9522.18 1373.82,-9522.18 340.00,50.00 340.00,50.00 340.00,50.35 340.00,50.35 340.00,209.89 340.00,209.89 340.00,210.00 340.00,210.00 340.02,210.00 340.02,210.00 379.44,210.00 379.44,210.00 379.46,210.00 379.46,210.00 379.48,210.00 379.48,210.00 439.97,210.00 439.97,210.00 440.00,210.00 440.00,210.00 5847.83,-7899.95 5847.83,-7899.95 -9674.52,1133.47 -9674.52,1133.47 -9674.59,1132.47 -9674.59,1132.47 160.00,429.99 160.00,429.99 160.00,426.10 160.00,426.10 160.00,426.09 160.00,426.09 160.00,426.07 160.00,426.07 " fill="url(#visGradient)" stroke="#ff6f00" stroke-width="3" stroke-linejoin="round" stroke-linecap="round"/>

  <!-- Ponto de origem (bomba) -->
  <circle cx="-587.97" cy="-737.66" r="8" fill="#ff3d00" stroke="#b71c1c" stroke-width="2"/>
  <circle cx="-587.97" cy="-737.66" r="12" fill="none" stroke="#ff6f00" stroke-width="2" opacity="0.6"/>
  <circle cx="-587.97" cy="-737.66" r="16" fill="none" stroke="#ffa726" stroke-width="1" opacity="0.4"/>

  <!-- Raios de visibilidade -->
  <g opacity="0.15">
    <line x1="-587.97" y1="-737.66" x2="160.00" y2="353.06" stroke="#ff9800" stroke-width="1" stroke-dasharray="5,5"/>
    <line x1="-587.97" y1="-737.66" x2="160.00" y2="353.04" stroke="#ff9800" stroke-width="1" stroke-dasharray="5,5"/>
    <line x1="-587.97" y1="-737.66" x2="160.00" y2="310.02" stroke="#ff9800" stroke-width="1" stroke-dasharray="5,5"/>
    <line x1="-587.97" y1="-737.66" x2="160.00" y2="310.00" stroke="#ff9800" stroke-width="1" stroke-dasharray="5,5"/>
    <line x1="-587.97" y1="-737.66" x2="-7461.77" y2="-5885.15" stroke="#ff9800" stroke-width="1" stroke-dasharray="5,5"/>
    <line x1="-587.97" y1="-737.66" x2="259.99" y2="290.00" stroke="#ff9800" stroke-width="1" stroke-dasharray="5,5"/>
    <line x1="-587.97" y1="-737.66" x2="260.00" y2="290.00" stroke="#ff9800" stroke-width="1" stroke-dasharray="5,5"/>
    <line x1="-587.97" y1="-737.66" x2="260.00" y2="140.20" stroke="#ff9800" stroke-width="1" stroke-dasharray="5,5"/>
    <line x1="-587.97" y1="-737.66" x2="1373.82" y2="-9522.18" stroke="#ff9800" stroke-width="1" stroke-dasharray="5,5"/>
    <line x1="-587.97" y1="-737.66" x2="340.00" y2="50.00" stroke="#ff9800" stroke-width="1" stroke-dasharray="5,5"/>
    <line x1="-587.97" y1="-737.66" x2="340.00" y2="209.89" stroke="#ff9800" stroke-width="1" stroke-dasharray="5,5"/>
    <line x1="-587.97" y1="-737.66" x2="340.00" y2="210.00" stroke="#ff9800" stroke-width="1" stroke-dasharray="5,5"/>
    <line x1="-587.97" y1="-737.66" x2="379.44" y2="210.00" stroke="#ff9800" stroke-width="1" stroke-dasharray="5,5"/>
    <line x1="-587.97" y1="-737.66" x2="379.46" y2="210.00" stroke="#ff9800" stroke-width="1" stroke-dasharray="5,5"/>
    <line x1="-587.97" y1="-737.66" x2="439.97" y2="210.00" stroke="#ff9800" stroke-width="1" stroke-dasharray="5,5"/>
    <line x1="-587.97" y1="-737.66" x2="440.00" y2="210.00" stroke="#ff9800" stroke-width="1" stroke-dasharray="5,5"/>
    <line x1="-587.97" y1="-737.66" x2="-9674.52" y2="1133.47" stroke="#ff9800" stroke-width="1" stroke-dasharray="5,5"/>
    <line x1="-587.97" y1="-737.66" x2="-9674.59" y2="1132.47" stroke="#ff9800" stroke-width="1" stroke-dasharray="5,5"/>
    <line x1="-587.97" y1="-737.66" x2="160.00" y2="426.10" stroke="#ff9800" stroke-width="1" stroke-dasharray="5,5"/>
    <line x1="-587.97" y1="-737.66" x2="160.00" y2="426.09" stroke="#ff9800" stroke-width="1" stroke-dasharray="5,5"/>
  </g>
</svg>
