<?xml version="1.0" encoding="UTF-8" standalone="no"?>
<svg xmlns="http://www.w3.org/2000/svg" width="190.00" height="220.00" viewBox="20.00 260.00 190.00 220.00">
  <defs>
    <radialGradient id="bgGradient" cx="50%" cy="50%" r="50%">
      <stop offset="0%" style="stop-color:#ffffff;stop-opacity:1" />
      <stop offset="100%" style="stop-color:#e0e0e0;stop-opacity:1" />
    </radialGradient>
    <radialGradient id="visGradient" cx="141.60" cy="336.56">
      <stop offset="0%" style="stop-color:#ffeb3b;stop-opacity:0.6" />
      <stop offset="70%" style="stop-color:#ffc107;stop-opacity:0.4" />
      <stop offset="100%" style="stop-color:#ff9800;stop-opacity:0.2" />
    </radialGradient>
    <filter id="brilho">
      <feGaussianBlur in="SourceGraphic" stdDeviation="2" />
    </filter>
  </defs>

  <rect x="20.00" y="260.00" width="190.00" height="220.00" fill="url(#bgGradient)"/>

  <!-- Região de visibilidade - Brilho -->
  <polygon points="70.00,330.01 70.00,330.00 70.00,329.99 70.00,310.01 70.00,310.01 70.00,310.00 70.00,310.00 70.01,310.00 70.01,310.00 88.74,310.00 88.74,310.00 88.75,310.00 88.75,310.00 88.76,310.00 88.76,310.00 113.33,310.00 113.33,310.00 113.34,310.00 122.49,310.00 122.49,310.00 122.50,310.00 122.50,310.00 122.51,310.00 122.51,310.00 129.08,310.00 129.09,310.00 129.10,310.00 129.99,310.00 130.00,310.00 130.01,310.00 141.73,310.00 141.74,310.00 141.75,310.00 144.99,310.00 145.00,310.00 145.01,310.00 148.56,310.00 148.57,310.00 148.58,310.00 153.32,310.00 153.32,310.00 153.33,310.00 153.33,310.00 153.34,310.00 153.34,310.00 155.37,310.00 155.38,310.00 155.40,310.00 155.70,310.00 155.70,310.00 155.71,310.00 155.71,310.00 155.73,310.00 155.73,310.00 159.99,310.00 159.99,310.00 160.00,310.00 160.00,310.00 160.00,310.01 160.00,310.01 160.00,313.52 160.00,313.53 160.00,313.54 160.00,318.56 160.00,318.56 160.00,318.57 160.00,318.57 160.00,318.58 160.00,318.58 160.00,324.11 160.00,324.11 160.00,324.12 160.00,324.12 160.00,324.13 160.00,324.13 160.00,329.99 160.00,329.99 160.00,329.99 160.00,330.00 160.00,330.00 160.00,330.00 160.00,330.01 160.00,330.01 160.00,330.01 160.00,330.81 160.00,330.82 160.00,330.82 160.00,338.16 160.00,338.16 160.00,338.17 160.00,339.99 160.00,339.99 160.00,339.99 160.00,339.99 160.00,340.00 160.00,340.00 160.00,340.00 160.00,340.00 160.00,340.01 160.00,340.01 160.00,340.01 160.00,340.01 160.00,341.76 160.00,341.76 160.00,341.76 160.00,341.76 160.00,341.77 160.00,341.77 160.00,349.99 160.00,350.00 160.00,350.01 160.00,350.40 160.00,350.41 160.00,350.41 160.00,352.85 160.00,352.86 160.00,352.86 160.00,387.14 160.00,387.14 160.00,387.15 160.00,399.99 160.00,399.99 160.00,400.00 160.00,400.00 160.00,400.01 160.00,400.01 160.00,429.99 160.00,429.99 160.00,430.00 160.00,430.00 159.99,430.00 159.99,430.00 70.01,430.00 70.01,430.00 70.00,430.00 70.00,430.00 70.00,429.99 70.00,429.99 " fill="url(#visGradient)" stroke="none" filter="url(#brilho)" opacity="0.5"/>
  <!-- Região de visibilidade - Principal -->
  <polygon points="70.00,330.01 70.00,330.00 70.00,329.99 70.00,310.01 70.00,310.01 70.00,310.00 70.00,310.00 70.01,310.00 70.01,310.00 88.74,310.00 88.74,310.00 88.75,310.00 88.75,310.00 88.76,310.00 88.76,310.00 113.33,310.00 113.33,310.00 113.34,310.00 122.49,310.00 122.49,310.00 122.50,310.00 122.50,310.00 122.51,310.00 122.51,310.00 129.08,310.00 129.09,310.00 129.10,310.00 129.99,310.00 130.00,310.00 130.01,310.00 141.73,310.00 141.74,310.00 141.75,310.00 144.99,310.00 145.00,310.00 145.01,310.00 148.56,310.00 148.57,310.00 148.58,310.00 153.32,310.00 153.32,310.00 153.33,310.00 153.33,310.00 153.34,310.00 153.34,310.00 155.37,310.00 155.38,310.00 155.40,310.00 155.70,310.00 155.70,310.00 155.71,310.00 155.71,310.00 155.73,310.00 155.73,310.00 159.99,310.00 159.99,310.00 160.00,310.00 160.00,310.00 160.00,310.01 160.00,310.01 160.00,313.52 160.00,313.53 160.00,313.54 160.00,318.56 160.00,318.56 160.00,318.57 160.00,318.57 160.00,318.58 160.00,318.58 160.00,324.11 160.00,324.11 160.00,324.12 160.00,324.12 160.00,324.13 160.00,324.13 160.00,329.99 160.00,329.99 160.00,329.99 160.00,330.00 160.00,330.00 160.00,330.00 160.00,330.01 160.00,330.01 160.00,330.01 160.00,330.81 160.00,330.82 160.00,330.82 160.00,338.16 160.00,338.16 160.00,338.17 160.00,339.99 160.00,339.99 160.00,339.99 160.00,339.99 160.00,340.00 160.00,340.00 160.00,340.00 160.00,340.00 160.00,340.01 160.00,340.01 160.00,340.01 160.00,340.01 160.00,341.76 160.00,341.76 160.00,341.76 160.00,341.76 160.00,341.77 160.00,341.77 160.00,349.99 160.00,350.00 160.00,350.01 160.00,350.40 160.00,350.41 160.00,350.41 160.00,352.85 160.00,352.86 160.00,352.86 160.00,387.14 160.00,387.14 160.00,387.15 160.00,399.99 160.00,399.99 160.00,400.00 160.00,400.00 160.00,400.01 160.00,400.01 160.00,429.99 160.00,429.99 160.00,430.00 160.00,430.00 159.99,430.00 159.99,430.00 70.01,430.00 70.01,430.00 70.00,430.00 70.00,430.00 70.00,429.99 70.00,429.99 " fill="url(#visGradient)" stroke="#ff6f00" stroke-width="3" stroke-linejoin="round" stroke-linecap="round"/>

  <!-- Ponto de origem (bomba) -->
  <circle cx="141.60" cy="336.56" r="8" fill="#ff3d00" stroke="#b71c1c" stroke-width="2"/>
  <circle cx="141.60" cy="336.56" r="12" fill="none" stroke="#ff6f00" stroke-width="2" opacity="0.6"/>
  <circle cx="141.60" cy="336.56" r="16" fill="none" stroke="#ffa726" stroke-width="1" opacity="0.4"/>

  <!-- Raios de visibilidade -->
  <g opacity="0.15">
    <line x1="141.60" y1="336.56" x2="70.00" y2="330.01" stroke="#ff9800" stroke-width="1" stroke-dasharray="5,5"/>
    <line x1="141.60" y1="336.56" x2="70.00" y2="310.01" stroke="#ff9800" stroke-width="1" stroke-dasharray="5,5"/>
    <line x1="141.60" y1="336.56" x2="70.00" y2="310.00" stroke="#ff9800" stroke-width="1" stroke-dasharray="5,5"/>
    <line x1="141.60" y1="336.56" x2="88.74" y2="310.00" stroke="#ff9800" stroke-width="1" stroke-dasharray="5,5"/>
    <line x1="141.60" y1="336.56" x2="88.75" y2="310.00" stroke="#ff9800" stroke-width="1" stroke-dasharray="5,5"/>
    <line x1="141.60" y1="336.56" x2="113.33" y2="310.00" stroke="#ff9800" stroke-width="1" stroke-dasharray="5,5"/>
    <line x1="141.60" y1="336.56" x2="122.49" y2="310.00" stroke="#ff9800" stroke-width="1" stroke-dasharray="5,5"/>
    <line x1="141.60" y1="336.56" x2="122.50" y2="310.00" stroke="#ff9800" stroke-width="1" stroke-dasharray="5,5"/>
    <line x1="141.60" y1="336.56" x2="129.08" y2="310.00" stroke="#ff9800" stroke-width="1" stroke-dasharray="5,5"/>
    <line x1="141.60" y1="336.56" x2="129.99" y2="310.00" stroke="#ff9800" stroke-width="1" stroke-dasharray="5,5"/>
    <line x1="141.60" y1="336.56" x2="141.73" y2="310.00" stroke="#ff9800" stroke-width="1" stroke-dasharray="5,5"/>
    <line x1="141.60" y1="336.56" x2="144.99" y2="310.00" stroke="#ff9800" stroke-width="1" stroke-dasharray="5,5"/>
    <line x1="141.60" y1="336.56" x2="148.56" y2="310.00" stroke="#ff9800" stroke-width="1" stroke-dasharray="5,5"/>
    <line x1="141.60" y1="336.56" x2="153.32" y2="310.00" stroke="#ff9800" stroke-width="1" stroke-dasharray="5,5"/>
    <line x1="141.60" y1="336.56" x2="153.33" y2="310.00" stroke="#ff9800" stroke-width="1" stroke-dasharray="5,5"/>
    <line x1="141.60" y1="336.56" x2="155.37" y2="310.00" stroke="#ff9800" stroke-width="1" stroke-dasharray="5,5"/>
    <line x1="141.60" y1="336.56" x2="155.70" y2="310.00" stroke="#ff9800" stroke-width="1" stroke-dasharray="5,5"/>
    <line x1="141.60" y1="336.56" x2="155.71" y2="310.00" stroke="#ff9800" stroke-width="1" stroke-dasharray="5,5"/>
    <line x1="141.60" y1="336.56" x2="159.99" y2="310.00" stroke="#ff9800" stroke-width="1" stroke-dasharray="5,5"/>
    <line x1="141.60" y1="336.56" x2="160.00" y2="310.00" stroke="#ff9800" stroke-width="1" stroke-dasharray="5,5"/>
    <line x1="141.60" y1="336.56" x2="160.00" y2="313.52" stroke="#ff9800" stroke-width="1" stroke-dasharray="5,5"/>
    <line x1="141.60" y1="336.56" x2="160.00" y2="318.56" stroke="#ff9800" stroke-width="1" stroke-dasharray="5,5"/>
    <line x1="141.60" y1="336.56" x2="160.00" y2="318.57" stroke="#ff9800" stroke-width="1" stroke-dasharray="5,5"/>
    <line x1="141.60" y1="336.56" x2="160.00" y2="324.11" stroke="#ff9800" stroke-width="1" stroke-dasharray="5,5"/>
    <line x1="141.60" y1="336.56" x2="160.00" y2="324.12" stroke="#ff9800" stroke-width="1" stroke-dasharray="5,5"/>
    <line x1="141.60" y1="336.56" x2="160.00" y2="329.99" stroke="#ff9800" stroke-width="1" stroke-dasharray="5,5"/>
    <line x1="141.60" y1="336.56" x2="160.00" y2="330.00" stroke="#ff9800" stroke-width="1" stroke-dasharray="5,5"/>
    <line x1="141.60" y1="336.56" x2="160.00" y2="330.01" stroke="#ff9800" stroke-width="1" stroke-dasharray="5,5"/>
    <line x1="141.60" y1="336.56" x2="160.00" y2="330.81" stroke="#ff9800" stroke-width="1" stroke-dasharray="5,5"/>
    <line x1="141.60" y1="336.56" x2="160.00" y2="338.16" stroke="#ff9800" stroke-width="1" stroke-dasharray="5,5"/>
    <line x1="141.60" y1="336.56" x2="160.00" y2="339.99" stroke="#ff9800" stroke-width="1" stroke-dasharray="5,5"/>
    <line x1="141.60" y1="336.56" x2="160.00" y2="339.99" stroke="#ff9800" stroke-width="1" stroke-dasharray="5,5"/>
    <line x1="141.60" y1="336.56" x2="160.00" y2="340.00" stroke="#ff9800" stroke-width="1" stroke-dasharray="5,5"/>
    <line x1="141.60" y1="336.56" x2="160.00" y2="340.01" stroke="#ff9800" stroke-width="1" stroke-dasharray="5,5"/>
    <line x1="141.60" y1="336.56" x2="160.00" y2="341.76" stroke="#ff9800" stroke-width="1" stroke-dasharray="5,5"/>
    <line x1="141.60" y1="336.56" x2="160.00" y2="341.76" stroke="#ff9800" stroke-width="1" stroke-dasharray="5,5"/>
    <line x1="141.60" y1="336.56" x2="160.00" y2="349.99" stroke="#ff9800" stroke-width="1" stroke-dasharray="5,5"/>
    <line x1="141.60" y1="336.56" x2="160.00" y2="350.40" stroke="#ff9800" stroke-width="1" stroke-dasharray="5,5"/>
    <line x1="141.60" y1="336.56" x2="160.00" y2="352.85" stroke="#ff9800" stroke-width="1" stroke-dasharray="5,5"/>
    <line x1="141.60" y1="336.56" x2="160.00" y2="387.14" stroke="#ff9800" stroke-width="1" stroke-dasharray="5,5"/>
    <line x1="141.60" y1="336.56" x2="160.00" y2="399.99" stroke="#ff9800" stroke-width="1" stroke-dasharray="5,5"/>
    <line x1="141.60" y1="336.56" x2="160.00" y2="400.00" stroke="#ff9800" stroke-width="1" stroke-dasharray="5,5"/>
    <line x1="141.60" y1="336.56" x2="160.00" y2="429.99" stroke="#ff9800" stroke-width="1" stroke-dasharray="5,5"/>
    <line x1="141.60" y1="336.56" x2="160.00" y2="430.00" stroke="#ff9800" stroke-width="1" stroke-dasharray="5,5"/>
    <line x1="141.60" y1="336.56" x2="70.01" y2="430.00" stroke="#ff9800" stroke-width="1" stroke-dasharray="5,5"/>
    <line x1="141.60" y1="336.56" x2="70.00" y2="430.00" stroke="#ff9800" stroke-width="1" stroke-dasharray="5,5"/>
  </g>
</svg>
