<?xml version="1.0" encoding="UTF-8" standalone="no"?>
<svg xmlns="http://www.w3.org/2000/svg" width="200.00" height="260.00" viewBox="290.00 -0.00 200.00 260.00">
  <defs>
    <radialGradient id="bgGradient" cx="50%" cy="50%" r="50%">
      <stop offset="0%" style="stop-color:#ffffff;stop-opacity:1" />
      <stop offset="100%" style="stop-color:#e0e0e0;stop-opacity:1" />
    </radialGradient>
    <radialGradient id="visGradient" cx="372.89" cy="157.61">
      <stop offset="0%" style="stop-color:#ffeb3b;stop-opacity:0.6" />
      <stop offset="70%" style="stop-color:#ffc107;stop-opacity:0.4" />
      <stop offset="100%" style="stop-color:#ff9800;stop-opacity:0.2" />
    </radialGradient>
    <filter id="brilho">
      <feGaussianBlur in="SourceGraphic" stdDeviation="2" />
    </filter>
  </defs>

  <rect x="290.00" y="-0.00" width="200.00" height="260.00" fill="url(#bgGradient)"/>

  <!-- Região de visibilidade - Brilho -->
  <polygon points="340.00,50.02 340.00,50.02 340.00,50.00 340.00,50.00 340.01,50.00 340.01,50.00 439.99,50.00 439.99,50.00 440.00,50.00 440.00,50.00 440.00,50.02 440.00,50.02 440.00,89.99 440.00,89.99 440.00,90.00 440.00,90.00 440.00,90.01 440.00,90.01 440.00,109.99 440.00,109.99 440.00,110.00 440.00,110.00 440.00,110.01 440.00,110.01 440.00,149.99 440.00,150.00 440.00,150.01 440.00,169.99 440.00,170.00 440.00,170.01 440.00,209.98 440.00,209.98 440.00,210.00 440.00,210.00 439.99,210.00 439.99,210.00 368.68,210.00 368.67,210.00 368.66,210.00 354.45,210.00 354.44,210.00 354.43,210.00 344.68,210.00 344.68,210.00 344.67,210.00 344.67,210.00 344.66,210.00 344.66,210.00 340.01,210.00 340.01,210.00 340.00,210.00 340.00,210.00 340.00,209.98 340.00,209.98 340.00,195.23 340.00,195.23 340.00,195.22 340.00,195.22 340.00,195.20 340.00,195.20 340.00,191.55 340.00,191.55 340.00,191.54 340.00,191.54 340.00,191.53 340.00,191.53 340.00,182.95 340.00,182.95 340.00,182.94 340.00,182.94 340.00,182.93 340.00,182.93 340.00,176.88 340.00,176.88 340.00,176.88 340.00,176.88 340.00,176.87 340.00,176.87 340.00,169.14 340.00,169.14 340.00,169.13 340.00,169.13 340.00,169.12 340.00,169.12 340.00,162.01 340.00,162.00 340.00,161.99 340.00,158.13 340.00,158.13 340.00,158.13 340.00,158.13 340.00,158.12 340.00,158.12 340.00,133.85 340.00,133.85 340.00,133.84 " fill="url(#visGradient)" stroke="none" filter="url(#brilho)" opacity="0.5"/>
  <!-- Região de visibilidade - Principal -->
  <polygon points="340.00,50.02 340.00,50.02 340.00,50.00 340.00,50.00 340.01,50.00 340.01,50.00 439.99,50.00 439.99,50.00 440.00,50.00 440.00,50.00 440.00,50.02 440.00,50.02 440.00,89.99 440.00,89.99 440.00,90.00 440.00,90.00 440.00,90.01 440.00,90.01 440.00,109.99 440.00,109.99 440.00,110.00 440.00,110.00 440.00,110.01 440.00,110.01 440.00,149.99 440.00,150.00 440.00,150.01 440.00,169.99 440.00,170.00 440.00,170.01 440.00,209.98 440.00,209.98 440.00,210.00 440.00,210.00 439.99,210.00 439.99,210.00 368.68,210.00 368.67,210.00 368.66,210.00 354.45,210.00 354.44,210.00 354.43,210.00 344.68,210.00 344.68,210.00 344.67,210.00 344.67,210.00 344.66,210.00 344.66,210.00 340.01,210.00 340.01,210.00 340.00,210.00 340.00,210.00 340.00,209.98 340.00,209.98 340.00,195.23 340.00,195.23 340.00,195.22 340.00,195.22 340.00,195.20 340.00,195.20 340.00,191.55 340.00,191.55 340.00,191.54 340.00,191.54 340.00,191.53 340.00,191.53 340.00,182.95 340.00,182.95 340.00,182.94 340.00,182.94 340.00,182.93 340.00,182.93 340.00,176.88 340.00,176.88 340.00,176.88 340.00,176.88 340.00,176.87 340.00,176.87 340.00,169.14 340.00,169.14 340.00,169.13 340.00,169.13 340.00,169.12 340.00,169.12 340.00,162.01 340.00,162.00 340.00,161.99 340.00,158.13 340.00,158.13 340.00,158.13 340.00,158.13 340.00,158.12 340.00,158.12 340.00,133.85 340.00,133.85 340.00,133.84 " fill="url(#visGradient)" stroke="#ff6f00" stroke-width="3" stroke-linejoin="round" stroke-linecap="round"/>

  <!-- Ponto de origem (bomba) -->
  <circle cx="372.89" cy="157.61" r="8" fill="#ff3d00" stroke="#b71c1c" stroke-width="2"/>
  <circle cx="372.89" cy="157.61" r="12" fill="none" stroke="#ff6f00" stroke-width="2" opacity="0.6"/>
  <circle cx="372.89" cy="157.61" r="16" fill="none" stroke="#ffa726" stroke-width="1" opacity="0.4"/>

  <!-- Raios de visibilidade -->
  <g opacity="0.15">
    <line x1="372.89" y1="157.61" x2="340.00" y2="50.02" stroke="#ff9800" stroke-width="1" stroke-dasharray="5,5"/>
    <line x1="372.89" y1="157.61" x2="340.00" y2="50.00" stroke="#ff9800" stroke-width="1" stroke-dasharray="5,5"/>
    <line x1="372.89" y1="157.61" x2="439.99" y2="50.00" stroke="#ff9800" stroke-width="1" stroke-dasharray="5,5"/>
    <line x1="372.89" y1="157.61" x2="440.00" y2="50.00" stroke="#ff9800" stroke-width="1" stroke-dasharray="5,5"/>
    <line x1="372.89" y1="157.61" x2="440.00" y2="89.99" stroke="#ff9800" stroke-width="1" stroke-dasharray="5,5"/>
    <line x1="372.89" y1="157.61" x2="440.00" y2="90.00" stroke="#ff9800" stroke-width="1" stroke-dasharray="5,5"/>
    <line x1="372.89" y1="157.61" x2="440.00" y2="109.99" stroke="#ff9800" stroke-width="1" stroke-dasharray="5,5"/>
    <line x1="372.89" y1="157.61" x2="440.00" y2="110.00" stroke="#ff9800" stroke-width="1" stroke-dasharray="5,5"/>
    <line x1="372.89" y1="157.61" x2="440.00" y2="149.99" stroke="#ff9800" stroke-width="1" stroke-dasharray="5,5"/>
    <line x1="372.89" y1="157.61" x2="440.00" y2="169.99" stroke="#ff9800" stroke-width="1" stroke-dasharray="5,5"/>
    <line x1="372.89" y1="157.61" x2="440.00" y2="209.98" stroke="#ff9800" stroke-width="1" stroke-dasharray="5,5"/>
    <line x1="372.89" y1="157.61" x2="440.00" y2="210.00" stroke="#ff9800" stroke-width="1" stroke-dasharray="5,5"/>
    <line x1="372.89" y1="157.61" x2="368.68" y2="210.00" stroke="#ff9800" stroke-width="1" stroke-dasharray="5,5"/>
    <line x1="372.89" y1="157.61" x2="354.45" y2="210.00" stroke="#ff9800" stroke-width="1" stroke-dasharray="5,5"/>
    <line x1="372.89" y1="157.61" x2="344.68" y2="210.00" stroke="#ff9800" stroke-width="1" stroke-dasharray="5,5"/>
    <line x1="372.89" y1="157.61" x2="344.67" y2="210.00" stroke="#ff9800" stroke-width="1" stroke-dasharray="5,5"/>
    <line x1="372.89" y1="157.61" x2="340.01" y2="210.00" stroke="#ff9800" stroke-width="1" stroke-dasharray="5,5"/>
    <line x1="372.89" y1="157.61" x2="340.00" y2="210.00" stroke="#ff9800" stroke-width="1" stroke-dasharray="5,5"/>
    <line x1="372.89" y1="157.61" x2="340.00" y2="195.23" stroke="#ff9800" stroke-width="1" stroke-dasharray="5,5"/>
    <line x1="372.89" y1="157.61" x2="340.00" y2="195.22" stroke="#ff9800" stroke-width="1" stroke-dasharray="5,5"/>
    <line x1="372.89" y1="157.61" x2="340.00" y2="191.55" stroke="#ff9800" stroke-width="1" stroke-dasharray="5,5"/>
    <line x1="372.89" y1="157.61" x2="340.00" y2="191.54" stroke="#ff9800" stroke-width="1" stroke-dasharray="5,5"/>
    <line x1="372.89" y1="157.61" x2="340.00" y2="182.95" stroke="#ff9800" stroke-width="1" stroke-dasharray="5,5"/>
    <line x1="372.89" y1="157.61" x2="340.00" y2="182.94" stroke="#ff9800" stroke-width="1" stroke-dasharray="5,5"/>
    <line x1="372.89" y1="157.61" x2="340.00" y2="176.88" stroke="#ff9800" stroke-width="1" stroke-dasharray="5,5"/>
    <line x1="372.89" y1="157.61" x2="340.00" y2="176.88" stroke="#ff9800" stroke-width="1" stroke-dasharray="5,5"/>
    <line x1="372.89" y1="157.61" x2="340.00" y2="169.14" stroke="#ff9800" stroke-width="1" stroke-dasharray="5,5"/>
    <line x1="372.89" y1="157.61" x2="340.00" y2="169.13" stroke="#ff9800" stroke-width="1" stroke-dasharray="5,5"/>
    <line x1="372.89" y1="157.61" x2="340.00" y2="162.01" stroke="#ff9800" stroke-width="1" stroke-dasharray="5,5"/>
    <line x1="372.89" y1="157.61" x2="340.00" y2="158.13" stroke="#ff9800" stroke-width="1" stroke-dasharray="5,5"/>
    <line x1="372.89" y1="157.61" x2="340.00" y2="158.13" stroke="#ff9800" stroke-width="1" stroke-dasharray="5,5"/>
    <line x1="372.89" y1="157.61" x2="340.00" y2="133.85" stroke="#ff9800" stroke-width="1" stroke-dasharray="5,5"/>
  </g>
</svg>
