<?xml version="1.0" encoding="UTF-8" standalone="no"?>
<svg xmlns="http://www.w3.org/2000/svg" width="11220.13" height="9029.43" viewBox="-4338.52 -100.00 11220.13 9029.43">
  <defs>
    <radialGradient id="bgGradient" cx="50%" cy="50%" r="50%">
      <stop offset="0%" style="stop-color:#ffffff;stop-opacity:1" />
      <stop offset="100%" style="stop-color:#e0e0e0;stop-opacity:1" />
    </radialGradient>
    <radialGradient id="visGradient" cx="402.17" cy="409.71">
      <stop offset="0%" style="stop-color:#ffeb3b;stop-opacity:0.6" />
      <stop offset="70%" style="stop-color:#ffc107;stop-opacity:0.4" />
      <stop offset="100%" style="stop-color:#ff9800;stop-opacity:0.2" />
    </radialGradient>
    <filter id="brilho">
      <feGaussianBlur in="SourceGraphic" stdDeviation="2" />
    </filter>
  </defs>

  <rect x="-4338.52" y="-100.00" width="11220.13" height="9029.43" fill="url(#bgGradient)"/>

  <!-- Região de visibilidade - Brilho -->
  <polygon points="490.00,97.50 490.00,97.50 490.00,97.50 490.00,91.67 490.00,91.67 490.00,91.66 490.00,75.01 490.00,75.00 490.00,74.99 490.00,-49.77 490.00,-49.77 490.00,-50.00 490.00,-50.00 490.02,-50.00 490.02,-50.00 589.98,-50.00 589.98,-50.00 590.00,-50.00 590.00,-50.00 590.00,-49.97 590.00,-49.97 590.00,49.99 590.00,50.00 590.00,50.01 590.00,109.99 590.00,110.00 590.00,110.01 590.00,209.98 590.00,210.00 6831.60,7840.21 -4287.64,8879.43 -4287.64,8879.43 -4288.52,8878.96 -4288.52,8878.96 440.00,209.97 440.00,209.97 440.00,204.23 440.00,204.21 440.00,204.19 440.00,170.73 440.00,170.73 440.00,170.71 440.00,170.71 440.00,170.70 440.00,170.70 440.00,166.33 440.00,166.32 440.00,166.30 440.00,160.01 490.00,110.00 490.00,110.00 490.00,109.71 490.00,109.71 490.00,109.71 490.00,109.71 490.00,109.70 490.00,109.70 490.00,108.22 490.00,108.21 490.00,108.21 490.00,107.92 490.00,107.92 490.00,107.92 490.00,107.92 490.00,107.92 490.00,107.92 490.00,107.68 490.00,107.68 490.00,107.67 490.00,107.67 490.00,107.67 490.00,107.67 490.00,107.50 490.00,107.50 490.00,107.50 490.00,107.50 490.00,107.50 490.00,107.50 490.00,106.88 490.00,106.88 490.00,106.87 490.00,106.77 490.00,106.76 490.00,106.76 490.00,106.18 490.00,106.18 490.00,106.18 490.00,106.18 490.00,106.18 490.00,106.18 490.00,105.35 490.00,105.35 490.00,105.35 490.00,105.28 490.00,105.28 490.00,105.28 490.00,104.88 490.00,104.88 490.00,104.88 490.00,104.88 490.00,104.88 490.00,104.88 490.00,103.93 490.00,103.93 490.00,103.93 490.00,103.75 490.00,103.75 490.00,103.75 490.00,103.75 490.00,103.75 490.00,103.75 490.00,103.24 490.00,103.24 490.00,103.24 490.00,103.24 490.00,103.23 490.00,103.23 490.00,102.56 490.00,102.56 490.00,102.56 490.00,102.56 490.00,102.56 490.00,102.56 490.00,102.50 490.00,102.50 490.00,102.50 490.00,101.67 490.00,101.67 490.00,101.67 490.00,101.67 490.00,101.67 490.00,101.67 490.00,101.67 490.00,101.67 490.00,101.67 490.00,100.63 490.00,100.63 490.00,100.62 " fill="url(#visGradient)" stroke="none" filter="url(#brilho)" opacity="0.5"/>
  <!-- Região de visibilidade - Principal -->
  <polygon points="490.00,97.50 490.00,97.50 490.00,97.50 490.00,91.67 490.00,91.67 490.00,91.66 490.00,75.01 490.00,75.00 490.00,74.99 490.00,-49.77 490.00,-49.77 490.00,-50.00 490.00,-50.00 490.02,-50.00 490.02,-50.00 589.98,-50.00 589.98,-50.00 590.00,-50.00 590.00,-50.00 590.00,-49.97 590.00,-49.97 590.00,49.99 590.00,50.00 590.00,50.01 590.00,109.99 590.00,110.00 590.00,110.01 590.00,209.98 590.00,210.00 6831.60,7840.21 -4287.64,8879.43 -4287.64,8879.43 -4288.52,8878.96 -4288.52,8878.96 440.00,209.97 440.00,209.97 440.00,204.23 440.00,204.21 440.00,204.19 440.00,170.73 440.00,170.73 440.00,170.71 440.00,170.71 440.00,170.70 440.00,170.70 440.00,166.33 440.00,166.32 440.00,166.30 440.00,160.01 490.00,110.00 490.00,110.00 490.00,109.71 490.00,109.71 490.00,109.71 490.00,109.71 490.00,109.70 490.00,109.70 490.00,108.22 490.00,108.21 490.00,108.21 490.00,107.92 490.00,107.92 490.00,107.92 490.00,107.92 490.00,107.92 490.00,107.92 490.00,107.68 490.00,107.68 490.00,107.67 490.00,107.67 490.00,107.67 490.00,107.67 490.00,107.50 490.00,107.50 490.00,107.50 490.00,107.50 490.00,107.50 490.00,107.50 490.00,106.88 490.00,106.88 490.00,106.87 490.00,106.77 490.00,106.76 490.00,106.76 490.00,106.18 490.00,106.18 490.00,106.18 490.00,106.18 490.00,106.18 490.00,106.18 490.00,105.35 490.00,105.35 490.00,105.35 490.00,105.28 490.00,105.28 490.00,105.28 490.00,104.88 490.00,104.88 490.00,104.88 490.00,104.88 490.00,104.88 490.00,104.88 490.00,103.93 490.00,103.93 490.00,103.93 490.00,103.75 490.00,103.75 490.00,103.75 490.00,103.75 490.00,103.75 490.00,103.75 490.00,103.24 490.00,103.24 490.00,103.24 490.00,103.24 490.00,103.23 490.00,103.23 490.00,102.56 490.00,102.56 490.00,102.56 490.00,102.56 490.00,102.56 490.00,102.56 490.00,102.50 490.00,102.50 490.00,102.50 490.00,101.67 490.00,101.67 490.00,101.67 490.00,101.67 490.00,101.67 490.00,101.67 490.00,101.67 490.00,101.67 490.00,101.67 490.00,100.63 490.00,100.63 490.00,100.62 " fill="url(#visGradient)" stroke="#ff6f00" stroke-width="3" stroke-linejoin="round" stroke-linecap="round"/>

  <!-- Ponto de origem (bomba) -->
  <circle cx="402.17" cy="409.71" r="8" fill="#ff3d00" stroke="#b71c1c" stroke-width="2"/>
  <circle cx="402.17" cy="409.71" r="12" fill="none" stroke="#ff6f00" stroke-width="2" opacity="0.6"/>
  <circle cx="402.17" cy="409.71" r="16" fill="none" stroke="#ffa726" stroke-width="1" opacity="0.4"/>

  <!-- Raios de visibilidade -->
  <g opacity="0.15">
    <line x1="402.17" y1="409.71" x2="490.00" y2="97.50" stroke="#ff9800" stroke-width="1" stroke-dasharray="5,5"/>
    <line x1="402.17" y1="409.71" x2="490.00" y2="91.67" stroke="#ff9800" stroke-width="1" stroke-dasharray="5,5"/>
    <line x1="402.17" y1="409.71" x2="490.00" y2="75.01" stroke="#ff9800" stroke-width="1" stroke-dasharray="5,5"/>
    <line x1="402.17" y1="409.71" x2="490.00" y2="-49.77" stroke="#ff9800" stroke-width="1" stroke-dasharray="5,5"/>
    <line x1="402.17" y1="409.71" x2="490.00" y2="-50.00" stroke="#ff9800" stroke-width="1" stroke-dasharray="5,5"/>
    <line x1="402.17" y1="409.71" x2="589.98" y2="-50.00" stroke="#ff9800" stroke-width="1" stroke-dasharray="5,5"/>
    <line x1="402.17" y1="409.71" x2="590.00" y2="-50.00" stroke="#ff9800" stroke-width="1" stroke-dasharray="5,5"/>
    <line x1="402.17" y1="409.71" x2="590.00" y2="49.99" stroke="#ff9800" stroke-width="1" stroke-dasharray="5,5"/>
    <line x1="402.17" y1="409.71" x2="590.00" y2="109.99" stroke="#ff9800" stroke-width="1" stroke-dasharray="5,5"/>
    <line x1="402.17" y1="409.71" x2="590.00" y2="209.98" stroke="#ff9800" stroke-width="1" stroke-dasharray="5,5"/>
    <line x1="402.17" y1="409.71" x2="-4287.64" y2="8879.43" stroke="#ff9800" stroke-width="1" stroke-dasharray="5,5"/>
    <line x1="402.17" y1="409.71" x2="-4288.52" y2="8878.96" stroke="#ff9800" stroke-width="1" stroke-dasharray="5,5"/>
    <line x1="402.17" y1="409.71" x2="440.00" y2="204.23" stroke="#ff9800" stroke-width="1" stroke-dasharray="5,5"/>
    <line x1="402.17" y1="409.71" x2="440.00" y2="170.73" stroke="#ff9800" stroke-width="1" stroke-dasharray="5,5"/>
    <line x1="402.17" y1="409.71" x2="440.00" y2="170.71" stroke="#ff9800" stroke-width="1" stroke-dasharray="5,5"/>
    <line x1="402.17" y1="409.71" x2="440.00" y2="166.33" stroke="#ff9800" stroke-width="1" stroke-dasharray="5,5"/>
    <line x1="402.17" y1="409.71" x2="440.00" y2="160.01" stroke="#ff9800" stroke-width="1" stroke-dasharray="5,5"/>
    <line x1="402.17" y1="409.71" x2="490.00" y2="109.71" stroke="#ff9800" stroke-width="1" stroke-dasharray="5,5"/>
    <line x1="402.17" y1="409.71" x2="490.00" y2="109.71" stroke="#ff9800" stroke-width="1" stroke-dasharray="5,5"/>
    <line x1="402.17" y1="409.71" x2="490.00" y2="108.22" stroke="#ff9800" stroke-width="1" stroke-dasharray="5,5"/>
    <line x1="402.17" y1="409.71" x2="490.00" y2="107.92" stroke="#ff9800" stroke-width="1" stroke-dasharray="5,5"/>
    <line x1="402.17" y1="409.71" x2="490.00" y2="107.92" stroke="#ff9800" stroke-width="1" stroke-dasharray="5,5"/>
    <line x1="402.17" y1="409.71" x2="490.00" y2="107.68" stroke="#ff9800" stroke-width="1" stroke-dasharray="5,5"/>
    <line x1="402.17" y1="409.71" x2="490.00" y2="107.67" stroke="#ff9800" stroke-width="1" stroke-dasharray="5,5"/>
    <line x1="402.17" y1="409.71" x2="490.00" y2="107.50" stroke="#ff9800" stroke-width="1" stroke-dasharray="5,5"/>
    <line x1="402.17" y1="409.71" x2="490.00" y2="107.50" stroke="#ff9800" stroke-width="1" stroke-dasharray="5,5"/>
    <line x1="402.17" y1="409.71" x2="490.00" y2="106.88" stroke="#ff9800" stroke-width="1" stroke-dasharray="5,5"/>
    <line x1="402.17" y1="409.71" x2="490.00" y2="106.77" stroke="#ff9800" stroke-width="1" stroke-dasharray="5,5"/>
    <line x1="402.17" y1="409.71" x2="490.00" y2="106.18" stroke="#ff9800" stroke-width="1" stroke-dasharray="5,5"/>
    <line x1="402.17" y1="409.71" x2="490.00" y2="106.18" stroke="#ff9800" stroke-width="1" stroke-dasharray="5,5"/>
    <line x1="402.17" y1="409.71" x2="490.00" y2="105.35" stroke="#ff9800" stroke-width="1" stroke-dasharray="5,5"/>
    <line x1="402.17" y1="409.71" x2="490.00" y2="105.28" stroke="#ff9800" stroke-width="1" stroke-dasharray="5,5"/>
    <line x1="402.17" y1="409.71" x2="490.00" y2="104.88" stroke="#ff9800" stroke-width="1" stroke-dasharray="5,5"/>
    <line x1="402.17" y1="409.71" x2="490.00" y2="104.88" stroke="#ff9800" stroke-width="1" stroke-dasharray="5,5"/>
    <line x1="402.17" y1="409.71" x2="490.00" y2="103.93" stroke="#ff9800" stroke-width="1" stroke-dasharray="5,5"/>
    <line x1="402.17" y1="409.71" x2="490.00" y2="103.75" stroke="#ff9800" stroke-width="1" stroke-dasharray="5,5"/>
    <line x1="402.17" y1="409.71" x2="490.00" y2="103.75" stroke="#ff9800" stroke-width="1" stroke-dasharray="5,5"/>
    <line x1="402.17" y1="409.71" x2="490.00" y2="103.24" stroke="#ff9800" stroke-width="1" stroke-dasharray="5,5"/>
    <line x1="402.17" y1="409.71" x2="490.00" y2="103.24" stroke="#ff9800" stroke-width="1" stroke-dasharray="5,5"/>
    <line x1="402.17" y1="409.71" x2="490.00" y2="102.56" stroke="#ff9800" stroke-width="1" stroke-dasharray="5,5"/>
    <line x1="402.17" y1="409.71" x2="490.00" y2="102.56" stroke="#ff9800" stroke-width="1" stroke-dasharray="5,5"/>
    <line x1="402.17" y1="409.71" x2="490.00" y2="102.50" stroke="#ff9800" stroke-width="1" stroke-dasharray="5,5"/>
    <line x1="402.17" y1="409.71" x2="490.00" y2="101.67" stroke="#ff9800" stroke-width="1" stroke-dasharray="5,5"/>
    <line x1="402.17" y1="409.71" x2="490.00" y2="101.67" stroke="#ff9800" stroke-width="1" stroke-dasharray="5,5"/>
    <line x1="402.17" y1="409.71" x2="490.00" y2="101.67" stroke="#ff9800" stroke-width="1" stroke-dasharray="5,5"/>
    <line x1="402.17" y1="409.71" x2="490.00" y2="100.63" stroke="#ff9800" stroke-width="1" stroke-dasharray="5,5"/>
  </g>
</svg>
